
<svg width="17" height="11" viewBox="0 0 17 11" fill="none" xmlns="http://www.w3.org/2000/svg">
<path d="M5.0795 10.271C5.49371 10.2705 5.82901 9.93425 5.8284 9.52004C5.8278 9.10583 5.49152 8.77049 5.07731 8.77104L5.0795 10.271ZM0.897538 8.77663C0.483326 8.77718 0.148029 9.11342 0.148633 9.52763C0.149238 9.94184 0.485514 10.2772 0.899727 10.2766L0.897538 8.77663ZM0.148632 9.52763C0.149237 9.94184 0.485513 10.2772 0.899726 10.2766C1.31394 10.2761 1.64924 9.93984 1.64863 9.52563L0.148632 9.52763ZM1.64279 5.52563C1.64219 5.11142 1.30591 4.77608 0.891701 4.77663C0.477488 4.77719 0.142192 5.11342 0.142796 5.52764L1.64279 5.52563ZM0.379294 8.98547C0.0804535 9.27225 0.0707121 9.74703 0.357536 10.0459C0.644359 10.3448 1.11913 10.3546 1.41797 10.0678L0.379294 8.98547ZM8.20302 2.51686L8.72078 1.97431C8.43037 1.69717 7.97327 1.69779 7.68368 1.9757L8.20302 2.51686ZM11.3422 5.51267L10.8245 6.05522C11.1149 6.33236 11.572 6.33174 11.8616 6.05383L11.3422 5.51267ZM16.0355 2.04825C16.3343 1.76146 16.3441 1.28669 16.0573 0.987815C15.7704 0.68894 15.2957 0.67914 14.9968 0.965926L16.0355 2.04825ZM5.07731 8.77104L0.897538 8.77663L0.899727 10.2766L5.0795 10.271L5.07731 8.77104ZM1.64863 9.52563L1.64279 5.52563L0.142796 5.52764L0.148632 9.52763L1.64863 9.52563ZM1.41797 10.0678L8.72236 3.05802L7.68368 1.9757L0.379294 8.98547L1.41797 10.0678ZM7.68526 3.05941L10.8245 6.05522L11.86 4.97012L8.72078 1.97431L7.68526 3.05941ZM11.8616 6.05383L16.0355 2.04825L14.9968 0.965926L10.8229 4.97151L11.8616 6.05383Z" fill="#F9545E"/>
</svg>
