<svg width="20" height="20" viewBox="0 0 26 26" fill="none" xmlns="http://www.w3.org/2000/svg">
<path d="M3.76923 17.6154H3.15915C2.4016 17.6154 1.70907 17.1874 1.37029 16.5098L1.21115 16.1915C1.07229 15.9138 1 15.6076 1 15.2971V13.9231V10.7029C1 10.3924 1.07229 10.0862 1.21115 9.80848L2.70101 6.82875C2.79714 6.63648 2.92365 6.46097 3.07565 6.30897L6.30897 3.07565C6.46097 2.92365 6.63648 2.79714 6.82875 2.70101L9.80848 1.21115C10.0862 1.07229 10.3924 1 10.7029 1H13.9231C14.4329 1 14.8462 1.41328 14.8462 1.92308V4.69231V5.71003C14.8462 6.24047 14.6354 6.74918 14.2604 7.12425L14.1526 7.23204C14.0006 7.38405 13.8251 7.51055 13.6328 7.60668L12.4992 8.17347C12.2215 8.31233 11.9153 8.38462 11.6048 8.38462H11.0592C10.5288 8.38462 10.0201 8.59533 9.64498 8.9704L9.30769 9.30769L8.9704 9.64498C8.59533 10.0201 8.38462 10.5288 8.38462 11.0592V12.0769V14.374C8.38462 14.6845 8.31233 14.9907 8.17347 15.2684L7.75968 16.096C7.56615 16.4831 7.25231 16.7969 6.86525 16.9905L6.03768 17.4042C5.75996 17.5431 5.45374 17.6154 5.14325 17.6154H3.76923Z" fill="#a3acb5"/>
<path d="M19.1242 19.1242L20.1185 20.1185C20.2889 20.2889 20.3846 20.52 20.3846 20.7609C20.3846 21.4362 21.0953 21.8754 21.6993 21.5734L21.9154 21.4654C22.1201 21.363 22.2861 21.197 22.3884 20.9923L23.0903 19.5887C23.1326 19.504 23.1689 19.4165 23.1988 19.3267L24.032 16.8272C24.0619 16.7374 24.0982 16.6498 24.1405 16.5652L24.7889 15.2684C24.9277 14.9907 25 14.6845 25 14.374V13.6527C25 13.2348 24.834 12.834 24.5385 12.5385C24.2429 12.2429 23.8421 12.0769 23.4242 12.0769H22.2308H18.5385H17.5207C16.9903 12.0769 16.4816 12.2876 16.1065 12.6627L15.4319 13.3373C15.0569 13.7124 14.8462 14.2211 14.8462 14.7515V15.2971C14.8462 15.6076 14.9184 15.9138 15.0573 16.1915L15.6241 17.3251C15.7202 17.5174 15.8467 17.6929 15.9987 17.8449L16.1065 17.9527C16.4816 18.3277 16.9903 18.5385 17.5207 18.5385H17.71C18.2405 18.5385 18.7492 18.7492 19.1242 19.1242Z" fill="#a3acb5"/>
<path d="M13 25C19.6274 25 25 19.6274 25 13C25 6.37258 19.6274 1 13 1C6.37258 1 1 6.37258 1 13C1 19.6274 6.37258 25 13 25Z" stroke="#a3acb5" stroke-width="2" stroke-linecap="round" stroke-linejoin="round"/>
<path d="M1.92285 17.616H5.15362C6.01047 17.616 6.83223 17.2757 7.43812 16.6698C8.04401 16.0639 8.38439 15.2421 8.38439 14.3853V11.616C8.38439 10.7592 8.72477 9.93743 9.33066 9.33154C9.93655 8.72565 10.7583 8.38527 11.6152 8.38527C12.472 8.38527 13.2938 8.04488 13.8997 7.439C14.5055 6.83311 14.8459 6.01135 14.8459 5.1545V1.12988M24.9998 12.816C24.0754 12.3364 23.0504 12.0833 22.009 12.0776H18.0767C17.2198 12.0776 16.3981 12.418 15.7922 13.0238C15.1863 13.6297 14.8459 14.4515 14.8459 15.3083C14.8459 16.1652 15.1863 16.987 15.7922 17.5928C16.3981 18.1987 17.2198 18.5391 18.0767 18.5391C18.6887 18.5391 19.2757 18.7822 19.7085 19.215C20.1413 19.6478 20.3844 20.2348 20.3844 20.8468V22.453" stroke="#a3acb5" stroke-width="2" stroke-linecap="round" stroke-linejoin="round"/>
</svg>
