<svg width="20" height="20" viewBox="0 0 22 22" fill="none" xmlns="http://www.w3.org/2000/svg">
<path d="M12.8277 1.25916C12.0943 1.0954 11.3458 1.00854 10.5944 1C9.82443 1.00833 9.07527 1.09583 8.34111 1.25916C8.18456 1.29418 8.04287 1.37728 7.93588 1.49682C7.82889 1.61636 7.76196 1.76636 7.74445 1.92583L7.57028 3.48998C7.54532 3.7106 7.46905 3.92232 7.3476 4.10818C7.22614 4.29404 7.06286 4.44889 6.87082 4.56034C6.67879 4.67179 6.46333 4.73673 6.2417 4.74998C6.02007 4.76323 5.79841 4.72441 5.59447 4.63664L4.16114 4.00581C4.01566 3.94176 3.85386 3.92452 3.69814 3.95647C3.54243 3.98842 3.40049 4.06798 3.29198 4.18414C2.25537 5.29335 1.48355 6.62302 1.0345 8.07328C0.987191 8.22596 0.988568 8.38958 1.03844 8.54144C1.08832 8.6933 1.18421 8.82587 1.31283 8.92077L2.58532 9.85827C2.76431 9.98999 2.90982 10.1619 3.0101 10.3603C3.11039 10.5586 3.16264 10.7777 3.16264 10.9999C3.16264 11.2222 3.11039 11.4413 3.0101 11.6396C2.90982 11.8379 2.76431 12.0099 2.58532 12.1416L1.31283 13.0816C1.18438 13.1764 1.08859 13.3089 1.03872 13.4605C0.988856 13.6122 0.98738 13.7757 1.0345 13.9282C1.48262 15.3798 2.25388 16.7109 3.29032 17.8215C3.39873 17.9378 3.54062 18.0176 3.69634 18.0497C3.85206 18.0818 4.01391 18.0647 4.15948 18.0007L5.59947 17.3682C5.80222 17.2797 6.02294 17.24 6.24384 17.2525C6.46473 17.2649 6.6796 17.3291 6.87112 17.4399C7.25945 17.6649 7.51862 18.0607 7.56945 18.5074L7.74278 20.0715C7.76019 20.2288 7.82571 20.377 7.9304 20.4957C8.0351 20.6144 8.17387 20.6979 8.32778 20.7348C9.8106 21.0884 11.3558 21.0884 12.8386 20.7348C12.9925 20.6979 13.1313 20.6144 13.236 20.4957C13.3406 20.377 13.4062 20.2288 13.4236 20.0715L13.5969 18.5049C13.6204 18.2841 13.6957 18.072 13.8166 17.8858C13.9376 17.6997 14.1007 17.5446 14.2928 17.4334C14.485 17.3221 14.7006 17.2578 14.9223 17.2456C15.144 17.2334 15.3654 17.2737 15.5686 17.3632L17.0077 17.9957C17.1533 18.0597 17.3151 18.0768 17.4708 18.0447C17.6266 18.0126 17.7685 17.9328 17.8769 17.8165C18.9127 16.7071 19.684 15.3774 20.1327 13.9274C20.18 13.7747 20.1786 13.6111 20.1287 13.4592C20.0789 13.3074 19.983 13.1748 19.8544 13.0799L18.5835 12.1416C18.4045 12.0099 18.2589 11.838 18.1586 11.6397C18.0582 11.4415 18.0059 11.2224 18.0058 11.0001C18.0057 10.7779 18.0579 10.5588 18.1581 10.3604C18.2583 10.1621 18.4038 9.99005 18.5827 9.85827L19.8535 8.91911C19.9818 8.82415 20.0775 8.69167 20.1272 8.53999C20.1769 8.38831 20.1782 8.22493 20.131 8.07245C19.6823 6.62224 18.9107 5.29256 17.8744 4.18331C17.7659 4.06715 17.6239 3.98758 17.4682 3.95563C17.3125 3.92369 17.1507 3.94093 17.0052 4.00498L15.5719 4.63581C15.3935 4.7152 15.2005 4.75609 15.0052 4.75581C14.6561 4.75516 14.3196 4.62573 14.06 4.3923C13.8004 4.15888 13.6361 3.83788 13.5986 3.49081L13.4236 1.92499C13.4061 1.76586 13.3394 1.61614 13.2327 1.49677C13.1261 1.3774 12.9839 1.29433 12.8277 1.25916ZM10.5836 14.3332C9.69955 14.3332 8.85171 13.982 8.22659 13.3569C7.60147 12.7318 7.25029 11.884 7.25029 10.9999C7.25029 10.1159 7.60147 9.26804 8.22659 8.64292C8.85171 8.0178 9.69955 7.66662 10.5836 7.66662C11.4676 7.66662 12.3155 8.0178 12.9406 8.64292C13.5657 9.26804 13.9169 10.1159 13.9169 10.9999C13.9169 11.884 13.5657 12.7318 12.9406 13.3569C12.3155 13.982 11.4676 14.3332 10.5836 14.3332Z" fill="#a3acb5"/>
</svg>
