<svg width="24" height="24" viewBox="0 0 22 22" fill="none" xmlns="http://www.w3.org/2000/svg">
<path d="M10.3572 10.8965C9.68862 11.0793 9.28577 11.5929 9.28577 12.0772C9.28577 12.5615 9.68862 13.0751 10.3572 13.2572V10.8965ZM11.4286 14.4686V16.8286C12.0972 16.6465 12.5001 16.1329 12.5001 15.6486C12.5001 15.1643 12.0972 14.6508 11.4286 14.4686Z" fill="#b8b8b8"/>
<path fill-rule="evenodd" clip-rule="evenodd" d="M18.0357 13.8606C18.0357 17.8056 14.8379 21.0035 10.8929 21.0035C6.94786 21.0035 3.75 17.8056 3.75 13.8606C3.75 9.91563 6.94786 6.71777 10.8929 6.71777C14.8379 6.71777 18.0357 9.91563 18.0357 13.8606ZM10.8929 9.0392C11.0349 9.0392 11.1712 9.09564 11.2717 9.19611C11.3721 9.29658 11.4286 9.43284 11.4286 9.57492V9.80134C12.5929 10.0099 13.5714 10.8849 13.5714 12.0749C13.5714 12.217 13.515 12.3533 13.4145 12.4537C13.3141 12.5542 13.1778 12.6106 13.0357 12.6106C12.8936 12.6106 12.7574 12.5542 12.6569 12.4537C12.5564 12.3533 12.5 12.217 12.5 12.0749C12.5 11.5906 12.0971 11.0771 11.4286 10.8942V13.3728C12.5929 13.5813 13.5714 14.4563 13.5714 15.6463C13.5714 16.8363 12.5929 17.7113 11.4286 17.9199V18.1463C11.4286 18.2884 11.3721 18.4247 11.2717 18.5252C11.1712 18.6256 11.0349 18.6821 10.8929 18.6821C10.7508 18.6821 10.6145 18.6256 10.5141 18.5252C10.4136 18.4247 10.3571 18.2884 10.3571 18.1463V17.9199C9.19286 17.7113 8.21429 16.8363 8.21429 15.6463C8.21429 15.5043 8.27073 15.368 8.37119 15.2675C8.47166 15.1671 8.60792 15.1106 8.75 15.1106C8.89208 15.1106 9.02834 15.1671 9.12881 15.2675C9.22927 15.368 9.28571 15.5043 9.28571 15.6463C9.28571 16.1306 9.68857 16.6442 10.3571 16.8263V14.3485C9.19286 14.1399 8.21429 13.2649 8.21429 12.0749C8.21429 10.8849 9.19286 10.0099 10.3571 9.80134V9.57492C10.3571 9.43284 10.4136 9.29658 10.5141 9.19611C10.6145 9.09564 10.7508 9.0392 10.8929 9.0392Z" fill="#b8b8b8"/>
<path fill-rule="evenodd" clip-rule="evenodd" d="M3.75 1.66667C3.75 1.29846 4.04848 1 4.41667 1H7.46429C9.35783 1 10.8929 2.53502 10.8929 4.42857C10.8929 2.53502 12.4279 1 14.3214 1H17.369C17.7372 1 18.0357 1.29846 18.0357 1.66667C18.0357 3.87579 16.2449 5.66667 14.0357 5.66667H11.5119V6.23809H10.3214V5.66667H7.75C5.54086 5.66667 3.75 3.87579 3.75 1.66667Z" fill="#b8b8b8"/>
</svg>
