<svg width="20" height="20" viewBox="0 0 22 24" fill="none" xmlns="http://www.w3.org/2000/svg">
<path d="M6.42247 21.8904C6.94464 22.5507 7.61004 23.0837 8.3684 23.4491C9.12675 23.8146 9.95824 24.0029 10.8001 24C11.6419 24.0029 12.4734 23.8146 13.2317 23.4491C13.9901 23.0837 14.6555 22.5507 15.1777 21.8904C12.2725 22.2842 9.32758 22.2842 6.42247 21.8904ZM18.9 8.39999V9.24479C18.9 10.2588 19.188 11.25 19.7304 12.0936L21.06 14.1612C22.2732 16.05 21.3468 18.6168 19.236 19.2132C13.7206 20.7755 7.87956 20.7755 2.36407 19.2132C0.253274 18.6168 -0.673124 16.05 0.540074 14.1612L1.86967 12.0936C2.41396 11.2432 2.7026 10.2544 2.70127 9.24479V8.39999C2.70127 3.76079 6.32767 0 10.8001 0C15.2725 0 18.9 3.76079 18.9 8.39999Z" fill="#a3acb5"/>
</svg>
