<svg xmlns="http://www.w3.org/2000/svg" xmlns:xlink="http://www.w3.org/1999/xlink" width="40pt" height="40pt" viewBox="0 0 500 500" version="1.1">
<g id="surface1">
<rect x="0" y="0" width="40" height="40" style="fill:rgb(255, 255, 255, 0);fill-opacity:1;stroke:none;"/>
<path style=" stroke:none;fill-rule:nonzero;fill:rgb(100%,100%,100%);fill-opacity:1;" d="M 247.011719 179.367188 L 349.339844 125.746094 L 368.511719 171.042969 L 256.75 193.195313 C 253.980469 188.136719 250.703125 183.5 247.011719 179.367188 "/>
<path style=" stroke:none;fill-rule:nonzero;fill:rgb(100%,100%,100%);fill-opacity:1;" d="M 321.148438 333.273438 C 321.148438 350.207031 307.371094 363.980469 290.441406 363.980469 L 286.777344 363.980469 C 269.84375 363.980469 256.070313 350.207031 256.070313 333.273438 L 256.070313 329.609375 C 256.070313 312.679688 269.84375 298.902344 286.777344 298.902344 L 290.441406 298.902344 C 307.371094 298.902344 321.148438 312.679688 321.148438 329.609375 Z M 236.707031 333.273438 C 236.707031 350.207031 222.933594 363.980469 206 363.980469 L 202.335938 363.980469 C 185.40625 363.980469 171.628906 350.207031 171.628906 333.273438 L 171.628906 329.609375 C 171.628906 312.679688 185.40625 298.902344 202.335938 298.902344 L 206 298.902344 C 222.933594 298.902344 236.707031 312.679688 236.707031 329.609375 Z M 152.265625 333.273438 C 152.265625 350.207031 138.492188 363.980469 121.558594 363.980469 L 117.894531 363.980469 C 100.964844 363.980469 87.191406 350.207031 87.191406 333.273438 L 87.191406 329.609375 C 87.191406 312.679688 100.964844 298.902344 117.894531 298.902344 L 121.558594 298.902344 C 138.492188 298.902344 152.265625 312.679688 152.265625 329.609375 Z M 295.15625 268.109375 L 113.332031 268.109375 C 78.5 268.109375 50 296.609375 50 331.441406 C 50 366.273438 78.5 394.773438 113.332031 394.773438 L 295.15625 394.773438 C 329.988281 394.773438 358.488281 366.273438 358.488281 331.441406 C 358.488281 296.609375 329.988281 268.109375 295.15625 268.109375 "/>
<path style=" stroke:none;fill-rule:nonzero;fill:rgb(100%,100%,100%);fill-opacity:1;" d="M 190.273438 224.882813 C 190.273438 229.753906 186.894531 233.703125 182.730469 233.703125 L 147.847656 233.703125 C 142.15625 233.703125 138.476563 226.601563 141.179688 220.75 C 147.679688 206.683594 162.320313 188.476563 181.246094 183.875 C 185.90625 182.742188 190.273438 186.972656 190.273438 192.539063 Z M 265.679688 235.207031 C 257.207031 194.226563 225.707031 163.792969 188.144531 163.792969 C 150.582031 163.792969 119.085938 194.226563 110.609375 235.207031 C 108.28125 246.460938 115.472656 257.324219 125.347656 257.324219 L 250.941406 257.324219 C 260.820313 257.324219 268.007813 246.460938 265.679688 235.207031 "/>
</g>
</svg>
